<svg width="68" height="74" viewBox="0 0 68 74" fill="none" xmlns="http://www.w3.org/2000/svg">
<path d="M49.4401 10.257L38.8488 3.97072C35.8597 2.19659 32.1403 2.1966 29.1512 3.97072L18.5599 10.257L7.8202 16.2862C4.78921 17.9878 2.92952 21.2088 2.97141 24.6845L3.11982 37L2.97141 49.3155C2.92952 52.7912 4.78921 56.0122 7.8202 57.7138L18.5599 63.743L29.1512 70.0293C32.1403 71.8034 35.8597 71.8034 38.8488 70.0293L49.4401 63.743L60.1798 57.7138C63.2108 56.0122 65.0705 52.7912 65.0286 49.3155L64.8802 37L65.0286 24.6845C65.0705 21.2088 63.2108 17.9878 60.1798 16.2862L49.4401 10.257Z" fill="#4AB26E" stroke="white" stroke-width="5"/>
<path d="M51 31.5L34.5 54.5L17 31.5L24.5 22.5L34.5 19L44 23L51 31.5Z" fill="white"/>
<path d="M51 31.5L34.5 54.5M51 31.5L44 23M51 31.5H41.4365M34.5 54.5L17 31.5M34.5 54.5L27.3125 31.5M34.5 54.5L41.4365 31.5M17 31.5H19H27.3125M17 31.5L24.5 22.5M24.5 22.5L34.5 19M24.5 22.5L27.3125 31.5M44 23L34.5 19M44 23L41.4365 31.5M34.5 19L27.3125 31.5M34.5 19L41.4365 31.5M27.3125 31.5H41.4365" stroke="#4AB26E" stroke-width="2.5" stroke-linejoin="round"/>
</svg>
