<svg width="30" height="30" viewBox="0 0 44 44" fill="none" xmlns="http://www.w3.org/2000/svg">
<path d="M25.6665 5.5V12.8333C25.6665 13.3196 25.8597 13.7859 26.2035 14.1297C26.5473 14.4735 27.0136 14.6667 27.4998 14.6667H34.8332" stroke="#777E90" stroke-width="2" stroke-linecap="round" stroke-linejoin="round"/>
<path d="M31.1665 38.5H12.8332C11.8607 38.5 10.9281 38.1137 10.2404 37.4261C9.55281 36.7384 9.1665 35.8058 9.1665 34.8333V9.16667C9.1665 8.19421 9.55281 7.26158 10.2404 6.57394C10.9281 5.88631 11.8607 5.5 12.8332 5.5H25.6665L34.8332 14.6667V34.8333C34.8332 35.8058 34.4469 36.7384 33.7592 37.4261C33.0716 38.1137 32.139 38.5 31.1665 38.5Z" stroke="#777E90" stroke-width="2.75" stroke-linecap="round" stroke-linejoin="round"/>
<path d="M22 20.1667V31.1667" stroke="#777E90" stroke-width="2.75" stroke-linecap="round" stroke-linejoin="round"/>
<path d="M16.5 25.6667H27.5" stroke="#777E90" stroke-width="2.75" stroke-linecap="round" stroke-linejoin="round"/>
</svg>
