<svg width="44" height="44" viewBox="0 0 44 44" fill="none" xmlns="http://www.w3.org/2000/svg">
<path d="M22 38.5C31.1127 38.5 38.5 31.1127 38.5 22C38.5 12.8873 31.1127 5.5 22 5.5C12.8873 5.5 5.5 12.8873 5.5 22C5.5 31.1127 12.8873 38.5 22 38.5Z" stroke="white" stroke-width="2.75" stroke-linecap="round" stroke-linejoin="round"/>
<path d="M22.0001 12.8333L30.7268 19.1583L27.5001 29.3333H16.5001L13.2734 19.1583L22.0001 12.8333Z" stroke="white" stroke-width="2.75" stroke-linecap="round" stroke-linejoin="round"/>
<path d="M13.2734 19.1583L6.41675 16.5M22.0001 12.8333V5.5V12.8333ZM27.5001 29.3333L32.0834 34.8333L27.5001 29.3333ZM30.7267 19.1583L37.5834 16.5L30.7267 19.1583ZM16.6101 29.425L11.9167 34.8333L16.6101 29.425Z" stroke="white" stroke-width="2.75" stroke-linecap="round" stroke-linejoin="round"/>
</svg>
