<svg width="44" height="44" viewBox="0 0 44 44" fill="none" xmlns="http://www.w3.org/2000/svg">
<path d="M12.8333 9.5H9.16659C8.15406 9.5 7.33325 10.3208 7.33325 12.8333V20.1667C7.33325 21.1792 8.15406 22 9.16659 22H12.8333C13.8458 22 14.6666 21.1792 14.6666 20.1667V12.8333C14.6666 10.3208 13.8458 9.5 12.8333 9.5Z" stroke="white" stroke-width="2.75" stroke-linecap="round" stroke-linejoin="round"/>
<path d="M11 7L11 9" stroke="white" stroke-width="2.75" stroke-linecap="round" stroke-linejoin="round"/>
<path d="M11 22L11 37" stroke="white" stroke-width="2.75" stroke-linecap="round" stroke-linejoin="round"/>
<path d="M23.8333 29H20.1666C19.1541 29 18.3333 29.8208 18.3333 30.8333V33C18.3333 34.0125 19.1541 34.8333 20.1666 34.8333H23.8333C24.8458 34.8333 25.6666 34.0125 25.6666 33V30.8333C25.6666 29.8208 24.8458 29 23.8333 29Z" stroke="white" stroke-width="2.75" stroke-linecap="round" stroke-linejoin="round"/>
<path d="M22 7L22 28" stroke="white" stroke-width="2.75" stroke-linecap="round" stroke-linejoin="round"/>
<path d="M22 34.8333V36.6667" stroke="white" stroke-width="2.75" stroke-linecap="round" stroke-linejoin="round"/>
<path d="M34.8333 9.16666H31.1666C30.1541 9.16666 29.3333 9.98748 29.3333 11V24.6667C29.3333 25.6792 30.1541 26.5 31.1666 26.5H34.8333C35.8458 26.5 36.6666 25.6792 36.6666 24.6667V11C36.6666 9.98748 35.8458 9.16666 34.8333 9.16666Z" stroke="white" stroke-width="2.75" stroke-linecap="round" stroke-linejoin="round"/>
<path d="M33 7.33334V9.16667" stroke="white" stroke-width="2.75" stroke-linecap="round" stroke-linejoin="round"/>
<path d="M33 27L33 37" stroke="white" stroke-width="2.75" stroke-linecap="round" stroke-linejoin="round"/>
</svg>
