<svg width="44" height="44" viewBox="0 0 44 44" fill="none" xmlns="http://www.w3.org/2000/svg">
<path d="M14.6667 38.5H29.3334" stroke="white" stroke-width="2.75" stroke-linecap="round" stroke-linejoin="round"/>
<path d="M22 31.1667V38.5" stroke="white" stroke-width="2.75" stroke-linecap="round" stroke-linejoin="round"/>
<path d="M12.8333 7.33333H31.1666" stroke="white" stroke-width="2.75" stroke-linecap="round" stroke-linejoin="round"/>
<path d="M31.1666 7.33333V22C31.1666 24.4311 30.2008 26.7627 28.4817 28.4818C26.7626 30.2009 24.4311 31.1667 21.9999 31.1667C19.5688 31.1667 17.2372 30.2009 15.5181 28.4818C13.799 26.7627 12.8333 24.4311 12.8333 22V7.33333" stroke="white" stroke-width="2.75" stroke-linecap="round" stroke-linejoin="round"/>
<path d="M9.16667 20.1667C11.1917 20.1667 12.8333 18.525 12.8333 16.5C12.8333 14.475 11.1917 12.8333 9.16667 12.8333C7.14162 12.8333 5.5 14.475 5.5 16.5C5.5 18.525 7.14162 20.1667 9.16667 20.1667Z" stroke="white" stroke-width="2.75" stroke-linecap="round" stroke-linejoin="round"/>
<path d="M34.8334 20.1667C36.8585 20.1667 38.5001 18.525 38.5001 16.5C38.5001 14.475 36.8585 12.8333 34.8334 12.8333C32.8084 12.8333 31.1667 14.475 31.1667 16.5C31.1667 18.525 32.8084 20.1667 34.8334 20.1667Z" stroke="white" stroke-width="2.75" stroke-linecap="round" stroke-linejoin="round"/>
</svg>
