<svg width="24" height="24" viewBox="0 0 44 44" fill="none" xmlns="http://www.w3.org/2000/svg">
<path d="M10.0835 9.16666H33.9169C34.1809 9.25926 34.4202 9.41107 34.6165 9.61045C34.8128 9.80983 34.9609 10.0515 35.0494 10.3169C35.1379 10.5824 35.1644 10.8645 35.127 11.1418C35.0896 11.4191 34.9892 11.6842 34.8335 11.9167L25.6669 22V34.8333L18.3335 29.3333V22L9.16686 11.9167C9.0112 11.6842 8.91081 11.4191 8.8734 11.1418C8.83598 10.8645 8.86253 10.5824 8.95101 10.3169C9.03949 10.0515 9.18756 9.80983 9.38386 9.61045C9.58016 9.41107 9.8195 9.25926 10.0835 9.16666Z" stroke="white" stroke-width="2.75" stroke-linecap="round" stroke-linejoin="round"/>
</svg>
