<svg width="16" height="16" viewBox="0 0 16 16" fill="none" xmlns="http://www.w3.org/2000/svg">
<path d="M3.33333 8H2L8 2L14 8H12.6667" stroke="#777E90" stroke-width="1.5" stroke-linecap="round" stroke-linejoin="round"/>
<path d="M3.3335 8V12.6667C3.3335 13.0203 3.47397 13.3594 3.72402 13.6095C3.97407 13.8595 4.31321 14 4.66683 14H11.3335C11.6871 14 12.0263 13.8595 12.2763 13.6095C12.5264 13.3594 12.6668 13.0203 12.6668 12.6667V8" stroke="#777E90" stroke-width="1.5" stroke-linecap="round" stroke-linejoin="round"/>
<path d="M6 14V10C6 9.64638 6.14048 9.30724 6.39052 9.05719C6.64057 8.80714 6.97971 8.66666 7.33333 8.66666H8.66667C9.02029 8.66666 9.35943 8.80714 9.60948 9.05719C9.85952 9.30724 10 9.64638 10 10V14" stroke="#777E90" stroke-width="1.5" stroke-linecap="round" stroke-linejoin="round"/>
</svg>
