<svg width="44" height="44" viewBox="0 0 44 44" fill="none" xmlns="http://www.w3.org/2000/svg">
<path d="M10.9999 22C13.025 22 14.6666 20.3584 14.6666 18.3333C14.6666 16.3083 13.025 14.6667 10.9999 14.6667C8.97487 14.6667 7.33325 16.3083 7.33325 18.3333C7.33325 20.3584 8.97487 22 10.9999 22Z" stroke="#777E90" stroke-width="2.75" stroke-linecap="round" stroke-linejoin="round"/>
<path d="M11 7.33333V14.6667" stroke="#777E90" stroke-width="2.75" stroke-linecap="round" stroke-linejoin="round"/>
<path d="M11 22V36.6667" stroke="#777E90" stroke-width="2.75" stroke-linecap="round" stroke-linejoin="round"/>
<path d="M21.9999 33C24.025 33 25.6666 31.3584 25.6666 29.3333C25.6666 27.3083 24.025 25.6667 21.9999 25.6667C19.9749 25.6667 18.3333 27.3083 18.3333 29.3333C18.3333 31.3584 19.9749 33 21.9999 33Z" stroke="#777E90" stroke-width="2.75" stroke-linecap="round" stroke-linejoin="round"/>
<path d="M22 7.33333V25.6667" stroke="#777E90" stroke-width="2.75" stroke-linecap="round" stroke-linejoin="round"/>
<path d="M22 33V36.6667" stroke="#777E90" stroke-width="2.75" stroke-linecap="round" stroke-linejoin="round"/>
<path d="M32.9999 16.5C35.025 16.5 36.6666 14.8584 36.6666 12.8333C36.6666 10.8083 35.025 9.16667 32.9999 9.16667C30.9749 9.16667 29.3333 10.8083 29.3333 12.8333C29.3333 14.8584 30.9749 16.5 32.9999 16.5Z" stroke="#777E90" stroke-width="2.75" stroke-linecap="round" stroke-linejoin="round"/>
<path d="M33 7.33333V9.16666" stroke="#777E90" stroke-width="2.75" stroke-linecap="round" stroke-linejoin="round"/>
<path d="M33 16.5V36.6667" stroke="#777E90" stroke-width="2.75" stroke-linecap="round" stroke-linejoin="round"/>
</svg>
