<svg width="16" height="16" viewBox="0 0 16 16" fill="none" xmlns="http://www.w3.org/2000/svg">
<path d="M11.8668 13.2113L10.4188 13.97C10.3759 13.9924 10.3275 14.0023 10.2792 13.9988C10.2309 13.9953 10.1845 13.9784 10.1452 13.9501C10.1059 13.9217 10.0753 13.883 10.0568 13.8383C10.0382 13.7935 10.0325 13.7445 10.0402 13.6967L10.3168 12.0893L9.14549 10.9513C9.11053 10.9175 9.08577 10.8746 9.07405 10.8274C9.06233 10.7802 9.06412 10.7307 9.0792 10.6844C9.09429 10.6382 9.12207 10.5971 9.15937 10.566C9.19667 10.5348 9.24199 10.5147 9.29016 10.508L10.9088 10.2733L11.6328 8.81133C11.6545 8.76779 11.6879 8.73115 11.7292 8.70554C11.7705 8.67993 11.8182 8.66636 11.8668 8.66636C11.9155 8.66636 11.9631 8.67993 12.0045 8.70554C12.0458 8.73115 12.0792 8.76779 12.1008 8.81133L12.8248 10.2733L14.4435 10.508C14.4915 10.5149 14.5367 10.5351 14.5738 10.5663C14.6109 10.5976 14.6386 10.6386 14.6536 10.6847C14.6687 10.7308 14.6705 10.7802 14.659 10.8274C14.6474 10.8745 14.6229 10.9174 14.5882 10.9513L13.4168 12.0893L13.6928 13.696C13.7011 13.7439 13.6958 13.7932 13.6775 13.8382C13.6592 13.8833 13.6286 13.9223 13.5892 13.9508C13.5499 13.9793 13.5033 13.9963 13.4548 13.9997C13.4063 14.0031 13.3578 13.9928 13.3148 13.97L11.8668 13.2113V13.2113Z" stroke="#777E90" stroke-width="1.5" stroke-linecap="round" stroke-linejoin="round"/>
<path d="M4.13343 13.2113L2.68543 13.97C2.64246 13.9924 2.59411 14.0023 2.5458 13.9988C2.49749 13.9953 2.4511 13.9784 2.41182 13.9501C2.37254 13.9217 2.34192 13.883 2.32336 13.8383C2.30481 13.7935 2.29906 13.7445 2.30676 13.6967L2.58343 12.0893L1.41209 10.9513C1.37713 10.9175 1.35238 10.8746 1.34065 10.8274C1.32893 10.7802 1.33072 10.7307 1.3458 10.6844C1.36089 10.6382 1.38867 10.5971 1.42597 10.566C1.46327 10.5348 1.50859 10.5147 1.55676 10.508L3.17543 10.2733L3.89943 8.81133C3.92108 8.76779 3.95445 8.73115 3.99579 8.70554C4.03713 8.67993 4.0848 8.66636 4.13343 8.66636C4.18206 8.66636 4.22972 8.67993 4.27106 8.70554C4.3124 8.73115 4.34577 8.76779 4.36743 8.81133L5.09143 10.2733L6.71009 10.508C6.75812 10.5149 6.80326 10.5351 6.84039 10.5663C6.87753 10.5976 6.90519 10.6386 6.92024 10.6847C6.9353 10.7308 6.93714 10.7802 6.92557 10.8274C6.914 10.8745 6.88947 10.9174 6.85476 10.9513L5.68343 12.0893L5.95943 13.696C5.96771 13.7439 5.96239 13.7932 5.94408 13.8382C5.92576 13.8833 5.89519 13.9223 5.85582 13.9508C5.81645 13.9793 5.76987 13.9963 5.72137 13.9997C5.67287 14.0031 5.62438 13.9928 5.58143 13.97L4.13343 13.2113V13.2113Z" stroke="#777E90" stroke-width="1.5" stroke-linecap="round" stroke-linejoin="round"/>
<path d="M8.00013 6.54466L6.55213 7.30333C6.50916 7.3257 6.46081 7.33568 6.4125 7.33216C6.36418 7.32864 6.3178 7.31177 6.27852 7.28341C6.23924 7.25506 6.20862 7.21635 6.19006 7.1716C6.17151 7.12685 6.16576 7.07782 6.17346 7.03L6.45013 5.42266L5.27879 4.28466C5.24383 4.25086 5.21908 4.20792 5.20735 4.16072C5.19563 4.11353 5.19742 4.06399 5.2125 4.01776C5.22759 3.97153 5.25537 3.93048 5.29267 3.89928C5.32997 3.86808 5.37529 3.848 5.42346 3.84133L7.04213 3.60666L7.76613 2.14466C7.78778 2.10112 7.82115 2.06448 7.86249 2.03887C7.90383 2.01326 7.9515 1.99969 8.00013 1.99969C8.04876 1.99969 8.09642 2.01326 8.13776 2.03887C8.1791 2.06448 8.21247 2.10112 8.23413 2.14466L8.95813 3.60666L10.5768 3.84133C10.6248 3.84824 10.67 3.86845 10.7071 3.89968C10.7442 3.9309 10.7719 3.9719 10.7869 4.01802C10.802 4.06415 10.8038 4.11357 10.7923 4.16069C10.7807 4.20781 10.7562 4.25076 10.7215 4.28466L9.55013 5.42266L9.82613 7.02933C9.83441 7.07724 9.82909 7.12652 9.81078 7.17156C9.79246 7.2166 9.76189 7.2556 9.72252 7.28414C9.68315 7.31267 9.63657 7.3296 9.58807 7.33299C9.53957 7.33638 9.49108 7.32611 9.44813 7.30333L8.00013 6.54466V6.54466Z" stroke="#777E90" stroke-width="1.5" stroke-linecap="round" stroke-linejoin="round"/>
</svg>
